<svg id="Layer_1" xmlns="http://www.w3.org/2000/svg" viewBox="0 0 289.4 289.4"><style>.st0{fill:#BAD874;} .st1{fill:#4D6227;} .st2{fill:#658033;} .st3{fill:#788C37;} .st4{fill:#69377E;} .st5{fill:#9559A3;} .st6{fill:#87489B;}</style><path class="st0" d="M126.2 288.2l6.9-72.1-16.4 70.5 11.7-71.4-21 69.3 16.4-70.6-25.6 67.8 21-69.3-29.9 65.9 25.5-67.7-34.2 63.8 29.9-66-38.4 61.5 34.3-63.9L64 264.8l38.4-61.4-46.1 55.8 42.3-58.8-49.7 52.7L95 197.3l-53.1 49.2 49.8-52.6-56.3 45.6 53.1-49.2-59.1 41.8 56.2-45.7-61.7 37.9L83 182.4l-64.1 33.7 61.7-37.8-66.2 29.3L78.6 174l-68.1 24.9 66.3-29.4-69.6 20.4L75.3 165 4.6 180.7l69.5-20.3-71.6 11 70.7-15.7L1 161.9l71.6-11-72.4 1.5 72.2-6.3L0 142.8l72.4-1.5-72-8 72.4 3.3-71.3-12.9 72 8.1-70.3-17.5 71.3 12.9-69-22.2 70.3 17.6L8.4 95.9l69 22.2L12 87l67.3 26.7-63.2-35.3 65.4 31L20.7 70 84 105.3 25.9 62l60.8 39.4-55.1-47.1 58.1 43.3L37.9 47l55 47.1-48.4-53.9 51.9 50.6-44.7-57L100 87.7 59.2 27.9l44.7 57-36.8-62.4 40.8 59.8-32.6-64.7L112.1 80 83.9 13.3 116.5 78 92.7 9.6 121 76.3 101.7 6.5l23.8 68.4-14.5-71 19.2 69.9L120.3 2l14.6 71L129.8.7l9.9 71.8-.3-72.5 5 72.3L148.9 0l.3 72.4L158.5.6 154 72.9l14-71.1-9.3 71.9 18.7-70-14 71 23.2-68.6-18.7 70 27.8-66.9-23.3 68.6 32.1-64.9-27.7 66.9 36.3-62.7-32.1 65 40.4-60.2-36.3 62.7 44.2-57.3-40.4 60.1 48-54.3-44.3 57.3 51.5-51-48 54.3 54.7-47.5-51.4 51 57.7-43.7-54.7 47.4 60.5-39.8-57.8 43.8 63-35.8-60.5 39.8 65.3-31.5-63 35.8L277 86l-65.2 31.5 68.8-22.6-67.2 27.1 70.2-18-68.8 22.6 71.2-13.3-70.2 18 71.9-8.6-71.1 13.3 72.3-3.8-71.9 8.6 72.4.9-72.3 3.9 72.2 5.7-72.5-.9 71.7 10.4-72.2-5.7 70.8 15.2-71.6-10.5 69.6 19.9-70.8-15.2 68.2 24.4-69.7-19.9 66.5 28.9-68.2-24.4 64.4 33.1-66.5-28.8 62.1 37.4-64.4-33.2 59.5 41.4-62.1-37.4 56.6 45.2-59.5-41.4 53.5 48.9-56.6-45.2 50.2 52.2-53.5-48.8 46.6 55.5-50.2-52.3 42.8 58.4-46.5-55.5 38.8 61.2-42.8-58.5 34.7 63.6-38.8-61.1 30.4 65.7-34.7-63.6 26.1 67.6-30.5-65.7 21.5 69.2-26-67.6 16.9 70.4-21.5-69.2 12.2 71.4-16.9-70.4 7.4 72-12.1-71.4 2.6 72.4-7.4-72-2.1 72.4-2.7-72.4-6.9 72.1 2.1-72.4z"/><path class="st1" d="M55.4 106.6h145.2v110.8H55.4z"/><path class="st2" d="M235.2 84l-34.7 22.6v110.8s36.1-31.5 36.1-36.1-1.4-97.3-1.4-97.3z"/><path class="st3" d="M235.2 84H93l-37.6 22.6h145.2z"/><path class="st4" d="M108.1 106.6h37.2v110.8h-37.2z"/><path class="st5" d="M108.1 106.6L138.6 84h35.9l-29.2 22.6z"/><path class="st6" d="M215 203.8c.7-2.1 0-106.4 0-106.4l11.7-7.8V193L215 203.5"/><path class="st5" d="M68.9 98.4c1.2.3 146.1-1 146.1-1l11.7-7.8h-143l-14.8 8.8z"/><ellipse class="st4" cx="147.1" cy="89.2" rx="19.1" ry="7.2"/><path class="st6" d="M132.4 54.5c-2.9-1.4-6-2.6-9.1-3.5-5.2-1.5-10.7-2.1-15.9-.7-8.5 2.3-16 12.1-10.2 20.4 5 7.1 21 7.1 14.8 7.1S94.1 85.6 100.8 93c6.7 7.4 25.8 6 35.2 0 9.3-6 17.6-15 18.6-15.2 2.7-.6-9.5-14.6-10.4-15.4-3.6-3.2-7.6-5.8-11.8-7.9z"/><path class="st6" d="M160.5 56.7c2.9-1.9 6-3.5 9.2-4.8 6.3-2.5 13.7-3.7 19.9-1.1 6.3 2.7 10.8 10.3 8.2 16.6-2.5 6.2-9.7 8.3-15.5 10 6.8-.6 20.3 5.1 14.2 13.7-5.8 8.2-24.9 9.1-34.9 4.2-10-4.8-19.2-12.7-20.3-12.9-2.6-.3 6.7-14.4 7.5-15.5 3.4-3.8 7.3-7.3 11.7-10.2z"/><ellipse class="st4" cx="148.2" cy="78.4" rx="6.9" ry="8.8"/><path class="st4" d="M135.6 69.5c-2.7-3.8-8.7-7.7-13.1-9-3.7-1.1-8.1-.5-10.9 2.2-.9.8-1.6 1.9-1.7 3.1-.2 1.2.3 2.5 1.3 3.1.6.4 1.4.5 2.1.6 8.6 1 16.9 2.4 25.4 4.2-.1.1-3-4.1-3.1-4.2zm30.5 4.3c2.1-3.2 4.5-6.3 7.2-9 1.8-1.8 13.6-9.9 11.8-1.3-.4 2.1-2.4 3.6-4.3 4.6-2.6 1.3-13.4 3.8-14.7 5.7z"/></svg>