<svg id="Layer_1" data-name="Layer 1" xmlns="http://www.w3.org/2000/svg" viewBox="0 0 84.66 84.66"><defs><style>.cls-1{fill:#fff;}</style></defs><title>social</title><path class="cls-1" d="M24.12 31.24c-2.13 4.29-3.6 8-3.53 12.21A21.88 21.88 0 0 0 34.8 63.83c8.22 3.25 17.49.95 23.86-5.91A21.15 21.15 0 0 0 62 34.15c-1.16-2.36-1-3 1.76-3 6.08.16 12.17.12 18.26.05 1.81 0 2.5.55 2.49 2.43-.07 12.07.08 24.14-.1 36.21-.15 8.37-7.46 15.16-15.85 15.21H16.22C7.27 85 .91 78.68.58 70.26.11 58.11.35 45.92.29 33.75c0-1.27 0-2.52 1.79-2.51h22zM7.08 4.45c0 4.27-.26 8 .11 11.71.18 1.84-1.85 5.29 1.68 5.36s1.64-3.41 1.79-5.21c.32-4 .09-8.1.1-12.16 0-.88-.21-2.21.93-2.26 1.39-.05.7 1.35.83 2.11.8 4.93.35 9.91.46 14.86 0 1.42-.23 2.93 2 2.87 2.11-.06 1.79-1.49 1.8-2.77V3.14c0-.77-.49-2.14 1-2 1.1.08.76 1.27.76 2v16.12c0 1.25-.08 2.45 1.78 2.51s2.05-1.11 2-2.55c0-5.17.11-10.35 0-15.52-.07-2.33.77-2.9 3-2.89 14.4.1 28.8 0 43.2.08A16.36 16.36 0 0 1 84.4 15.7c.22 3.44 0 6.9.11 10.34.05 1.76-.7 2.27-2.35 2.25-7.5-.06-15-.05-22.51 0a4.44 4.44 0 0 1-3-1.2c-8.84-7.21-19.42-7.26-28.4-.11a5.75 5.75 0 0 1-3.88 1.31c-7.1 0-14.2-.09-21.3 0-2.31 0-3.06-.71-2.9-3 .22-3 .1-6.09.27-9.12A15.29 15.29 0 0 1 7.08 4.45zm62.67 3.13c-7.23 0-7.23 0-7.23 7.12 0 7.6 0 7.6 7.45 7.6 7.19 0 7.19 0 7.19-7.2.01-7.53.01-7.53-7.41-7.52z"/><path class="cls-1" d="M42.4 27.07a16.34 16.34 0 0 1 16.46 16.4 16.49 16.49 0 1 1-16.46-16.4zm12.37 16.4c0-7-5.18-12.22-12.32-12.27a12.11 12.11 0 0 0-12.38 12.24 12.27 12.27 0 0 0 12.37 12.34 12.09 12.09 0 0 0 12.33-12.31z"/></svg>